<?xml version="1.0" encoding="utf-8" standalone="no"?><!DOCTYPE svg PUBLIC "-//W3C//DTD SVG 20010904//EN" "http://www.w3.org/TR/2001/REC-SVG-20010904/DTD/svg10.dtd"><svg xmlns="http://www.w3.org/2000/svg" width="463" height="416" xmlns:xlink="http://www.w3.org/1999/xlink"><source><![CDATA[Title: Ideal StreamView
Receive\n Raw\n Network \nMessages ->Formatter: Network Messages
Formatter->Presentation\n(WebSocks\n WS etc..): Serialized\n Objects\n (Json)
]]></source><desc>Ideal StreamView</desc><defs><marker viewBox="0 0 5 5" markerWidth="5" markerHeight="5" orient="auto" refX="5" refY="2.5" id="markerArrowBlock"><path d="M 0 0 L 5 2.5 L 0 5 z"></path></marker><marker viewBox="0 0 9.6 16" markerWidth="4" markerHeight="16" orient="auto" refX="9.6" refY="8" id="markerArrowOpen"><path d="M 9.6,8 1.92,16 0,13.7 5.76,8 0,2.286 1.92,0 9.6,8 z"></path></marker></defs><g class="title"><path d="M10,10C140.5,16.2 128.1,3.8 165.4,10.0C164.1,23.5 166.7,24.8 165.4,42.5C47.3,48.7 35.6,36.3 10.0,42.5C11.3,15.2 8.7,37.3 10.0,10.0" stroke="#000000" fill="#ffffff" style="stroke-width: 2;"></path><text x="15" y="29" style="font-size: 16px; font-family: danielbd;"><tspan x="15">Ideal StreamView</tspan></text></g><g class="actor"><path d="M10,52.5C32.9,48.7 46.8,56.3 105.3,52.5C109.3,68.5 101.3,113.8 105.3,152.6C79.7,148.8 38.4,156.4 10.0,152.6C14.0,127.4 6.0,76.5 10.0,52.5" stroke="#000000" fill="#ffffff" style="stroke-width: 2;"></path><text x="20" y="76.5" style="font-size: 16px; font-family: danielbd;"><tspan x="20">Receive</tspan><tspan dy="1.2em" x="20">Raw</tspan><tspan dy="1.2em" x="20">Network</tspan><tspan dy="1.2em" x="20">Messages</tspan></text></g><g class="actor"><path d="M10,295.984375C32.9,299.8 49.0,292.2 105.3,296.0C101.3,380.1 109.3,323.5 105.3,396.1C82.4,399.9 76.6,392.3 10.0,396.1C14.0,340.7 6.0,372.1 10.0,296.0" stroke="#000000" fill="#ffffff" style="stroke-width: 2;"></path><text x="20" y="319.984375" style="font-size: 16px; font-family: danielbd;"><tspan x="20">Receive</tspan><tspan dy="1.2em" x="20">Raw</tspan><tspan dy="1.2em" x="20">Network</tspan><tspan dy="1.2em" x="20">Messages</tspan></text></g><path d="M57.7,152.6C63.4,232.9 51.9,273.0 57.7,296.0" stroke="#000000" fill="none" style="stroke-width: 2;"></path><g class="actor"><path d="M178.765625,52.5C241.5,48.0 199.1,57.0 290.5,52.5C294.6,112.0 286.5,78.6 290.5,152.6C263.7,148.1 237.6,157.1 178.8,152.6C182.8,136.6 174.8,68.5 178.8,52.5" stroke="#000000" fill="#ffffff" style="stroke-width: 2;"></path><text x="188.765625" y="105.296875" style="font-size: 16px; font-family: danielbd;"><tspan x="188.765625">Formatter</tspan></text></g><g class="actor"><path d="M178.765625,295.984375C263.7,291.5 272.7,300.5 290.5,296.0C286.5,372.1 294.6,320.0 290.5,396.1C196.7,400.5 205.6,391.6 178.8,396.1C182.8,333.5 174.8,312.0 178.8,296.0" stroke="#000000" fill="#ffffff" style="stroke-width: 2;"></path><text x="188.765625" y="348.78125" style="font-size: 16px; font-family: danielbd;"><tspan x="188.765625">Formatter</tspan></text></g><path d="M234.7,152.6C228.9,261.6 240.4,273.0 234.7,296.0" stroke="#000000" fill="none" style="stroke-width: 2;"></path><g class="actor"><path d="M310.546875,52.5C340.0,47.6 403.8,57.4 433.2,52.5C429.2,136.6 437.2,68.5 433.2,152.6C406.7,157.5 403.8,147.7 310.5,152.6C314.6,136.6 306.5,74.7 310.5,52.5" stroke="#000000" fill="#ffffff" style="stroke-width: 2;"></path><text x="320.546875" y="86.1015625" style="font-size: 16px; font-family: danielbd;"><tspan x="320.546875">Presentation</tspan><tspan dy="1.2em" x="320.546875">(WebSocks</tspan><tspan dy="1.2em" x="320.546875">WS etc..)</tspan></text></g><g class="actor"><path d="M310.546875,295.984375C377.8,300.9 365.1,291.1 433.2,296.0C437.2,325.8 429.2,312.1 433.2,396.1C352.1,401.0 340.0,391.2 310.5,396.1C306.5,363.2 314.6,320.0 310.5,296.0" stroke="#000000" fill="#ffffff" style="stroke-width: 2;"></path><text x="320.546875" y="329.5859375" style="font-size: 16px; font-family: danielbd;"><tspan x="320.546875">Presentation</tspan><tspan dy="1.2em" x="320.546875">(WebSocks</tspan><tspan dy="1.2em" x="320.546875">WS etc..)</tspan></text></g><path d="M371.9,152.6C377.6,237.0 366.1,220.8 371.9,296.0" stroke="#000000" fill="none" style="stroke-width: 2;"></path><g class="signal"><text x="67.65625" y="180.34375" style="font-size: 16px; font-family: danielbd;"><tspan x="67.65625">Network Messages</tspan></text><path d="M57.7,195.1C100.1,188.0 192.2,202.2 234.7,195.1" stroke="#000000" fill="none" style="stroke-width: 2; marker-end: url(&quot;#markerArrowBlock&quot;);"></path></g><g class="signal"><text x="263.296875" y="203.6484375" style="font-size: 16px; font-family: danielbd;"><tspan x="263.265625">Serialized</tspan><tspan dy="1.2em" x="263.265625">Objects</tspan><tspan dy="1.2em" x="263.265625">(Json)</tspan></text><path d="M234.7,276.0C342.0,281.5 265.5,270.5 371.9,276.0" stroke="#000000" fill="none" style="stroke-width: 2; marker-end: url(&quot;#markerArrowBlock&quot;);"></path></g></svg>