<?xml version="1.0" encoding="utf-8" standalone="no"?><!DOCTYPE svg PUBLIC "-//W3C//DTD SVG 20010904//EN" "http://www.w3.org/TR/2001/REC-SVG-20010904/DTD/svg10.dtd"><svg xmlns="http://www.w3.org/2000/svg" width="463" height="377" xmlns:xlink="http://www.w3.org/1999/xlink"><source><![CDATA[Title: Ideal StreamView
Receive\n Raw\n Network \nMessages ->Formatter: Network Messages
Formatter->Presentation\n(WebSocks\n WS etc..): Json
]]></source><desc>Ideal StreamView</desc><defs><marker viewBox="0 0 5 5" markerWidth="5" markerHeight="5" orient="auto" refX="5" refY="2.5" id="markerArrowBlock"><path d="M 0 0 L 5 2.5 L 0 5 z"></path></marker><marker viewBox="0 0 9.6 16" markerWidth="4" markerHeight="16" orient="auto" refX="9.6" refY="8" id="markerArrowOpen"><path d="M 9.6,8 1.92,16 0,13.7 5.76,8 0,2.286 1.92,0 9.6,8 z"></path></marker></defs><g class="title"><path d="M10,10C115.6,16.2 140.5,3.8 165.4,10.0C164.1,37.3 166.7,30.2 165.4,42.5C59.6,36.3 125.5,48.7 10.0,42.5C8.7,23.4 11.3,22.9 10.0,10.0" stroke="#000000" fill="#ffffff" style="stroke-width: 2;"></path><text x="15" y="29" style="font-size: 16px; font-family: danielbd;"><tspan x="15">Ideal StreamView</tspan></text></g><g class="actor"><path d="M10,52.5C90.1,56.3 82.4,48.7 105.3,52.5C101.3,116.6 109.3,73.3 105.3,152.6C82.4,156.4 35.7,148.8 10.0,152.6C6.0,136.6 14.0,68.5 10.0,52.5" stroke="#000000" fill="#ffffff" style="stroke-width: 2;"></path><text x="20" y="76.5" style="font-size: 16px; font-family: danielbd;"><tspan x="20">Receive</tspan><tspan dy="1.2em" x="20">Raw</tspan><tspan dy="1.2em" x="20">Network</tspan><tspan dy="1.2em" x="20">Messages</tspan></text></g><g class="actor"><path d="M10,257.59375C25.3,253.8 90.1,261.4 105.3,257.6C101.3,335.3 109.3,273.6 105.3,357.7C82.4,361.5 32.9,353.9 10.0,357.7C14.0,333.7 6.0,332.9 10.0,257.6" stroke="#000000" fill="#ffffff" style="stroke-width: 2;"></path><text x="20" y="281.59375" style="font-size: 16px; font-family: danielbd;"><tspan x="20">Receive</tspan><tspan dy="1.2em" x="20">Raw</tspan><tspan dy="1.2em" x="20">Network</tspan><tspan dy="1.2em" x="20">Messages</tspan></text></g><path d="M57.7,152.6C61.9,202.7 53.5,210.0 57.7,257.6" stroke="#000000" fill="none" style="stroke-width: 2;"></path><g class="actor"><path d="M178.765625,52.5C196.7,48.0 212.5,57.0 290.5,52.5C286.5,97.7 294.6,112.4 290.5,152.6C220.0,157.1 215.3,148.1 178.8,152.6C182.8,136.6 174.8,128.6 178.8,52.5" stroke="#000000" fill="#ffffff" style="stroke-width: 2;"></path><text x="188.765625" y="105.296875" style="font-size: 16px; font-family: danielbd;"><tspan x="188.765625">Formatter</tspan></text></g><g class="actor"><path d="M178.765625,257.59375C238.8,253.1 217.2,262.1 290.5,257.6C286.5,290.4 294.6,333.7 290.5,357.7C222.7,362.2 198.0,353.2 178.8,357.7C182.8,326.6 174.8,333.7 178.8,257.6" stroke="#000000" fill="#ffffff" style="stroke-width: 2;"></path><text x="188.765625" y="310.390625" style="font-size: 16px; font-family: danielbd;"><tspan x="188.765625">Formatter</tspan></text></g><path d="M234.7,152.6C230.5,169.4 238.9,198.7 234.7,257.6" stroke="#000000" fill="none" style="stroke-width: 2;"></path><g class="actor"><path d="M310.546875,52.5C333.3,57.4 340.0,47.6 433.2,52.5C437.2,128.6 429.2,122.3 433.2,152.6C388.1,157.5 377.5,147.7 310.5,152.6C306.5,136.6 314.6,98.0 310.5,52.5" stroke="#000000" fill="#ffffff" style="stroke-width: 2;"></path><text x="320.546875" y="86.1015625" style="font-size: 16px; font-family: danielbd;"><tspan x="320.546875">Presentation</tspan><tspan dy="1.2em" x="320.546875">(WebSocks</tspan><tspan dy="1.2em" x="320.546875">WS etc..)</tspan></text></g><g class="actor"><path d="M310.546875,257.59375C382.1,252.7 403.8,262.5 433.2,257.6C437.2,281.6 429.2,273.6 433.2,357.7C373.5,352.8 403.8,362.6 310.5,357.7C314.6,273.6 306.5,281.6 310.5,257.6" stroke="#000000" fill="#ffffff" style="stroke-width: 2;"></path><text x="320.546875" y="291.1953125" style="font-size: 16px; font-family: danielbd;"><tspan x="320.546875">Presentation</tspan><tspan dy="1.2em" x="320.546875">(WebSocks</tspan><tspan dy="1.2em" x="320.546875">WS etc..)</tspan></text></g><path d="M371.9,152.6C376.1,198.2 367.7,220.3 371.9,257.6" stroke="#000000" fill="none" style="stroke-width: 2;"></path><g class="signal"><text x="67.65625" y="180.34375" style="font-size: 16px; font-family: danielbd;"><tspan x="67.65625">Network Messages</tspan></text><path d="M57.7,195.1C192.2,202.2 100.1,188.0 234.7,195.1" stroke="#000000" fill="none" style="stroke-width: 2; marker-end: url(&quot;#markerArrowBlock&quot;);"></path></g><g class="signal"><text x="283.640625" y="222.84375" style="font-size: 16px; font-family: danielbd;"><tspan x="283.640625">Json</tspan></text><path d="M234.7,237.6C303.5,232.1 286.0,243.1 371.9,237.6" stroke="#000000" fill="none" style="stroke-width: 2; marker-end: url(&quot;#markerArrowBlock&quot;);"></path></g></svg>